<?xml version="1.0" encoding="UTF-8" standalone="no"?>
<!-- Generator: Adobe Illustrator 16.0.0, SVG Export Plug-In . SVG Version: 6.00 Build 0)  -->

<svg
   xmlns:dc="http://purl.org/dc/elements/1.1/"
   xmlns:cc="http://creativecommons.org/ns#"
   xmlns:rdf="http://www.w3.org/1999/02/22-rdf-syntax-ns#"
   xmlns:svg="http://www.w3.org/2000/svg"
   xmlns="http://www.w3.org/2000/svg"
   xmlns:sodipodi="http://sodipodi.sourceforge.net/DTD/sodipodi-0.dtd"
   xmlns:inkscape="http://www.inkscape.org/namespaces/inkscape"
   version="1.1"
   x="0px"
   y="0px"
   width="960"
   height="520"
   viewBox="0 0 960 519.99999"
   enable-background="new 0 0 986.951 395.98"
   xml:space="preserve"
   id="svg4136"
   inkscape:version="0.91 r13725"
   sodipodi:docname="deviantart.svg"><metadata
     id="metadata4308"><rdf:RDF><cc:Work
         rdf:about=""><dc:format>image/svg+xml</dc:format><dc:type
           rdf:resource="http://purl.org/dc/dcmitype/StillImage" /><dc:title /></cc:Work></rdf:RDF></metadata><defs
     id="defs4306" /><sodipodi:namedview
     pagecolor="#ffffff"
     bordercolor="#666666"
     borderopacity="1"
     objecttolerance="10"
     gridtolerance="10"
     guidetolerance="10"
     inkscape:pageopacity="0"
     inkscape:pageshadow="2"
     inkscape:window-width="1317"
     inkscape:window-height="744"
     id="namedview4304"
     showgrid="false"
     inkscape:zoom="0.56886592"
     inkscape:cx="212.13347"
     inkscape:cy="114.37867"
     inkscape:window-x="49"
     inkscape:window-y="24"
     inkscape:window-maximized="1"
     inkscape:current-layer="svg4136" /><g
     id="Background"
     transform="matrix(0.97269268,0,0,1.3131976,0,-1.887279e-6)"><rect
       id="black"
       width="986.95099"
       height="395.98001"
       x="0"
       y="0" /></g><g
     id="Artwork"
     transform="matrix(0.61668249,0,0,0.61668249,172.22672,137.23825)"><g
       id="Color_01"><polygon
         points="157.581,260.359 220.143,260.359 220.143,209.343 185.749,209.343 182.689,205.613 220.143,134.061 220.143,96.913 220.131,96.913 182.994,96.913 179.287,100.651 161.757,134.057 156.246,137.775 93.684,137.775 93.684,188.791 128.078,188.791 131.141,192.496 93.684,264.072 93.684,301.221 93.695,301.221 130.832,301.221 134.54,297.483 152.069,264.077 "
         id="polygon4142"
         style="fill:#05cc47" /><g
         id="g4144"><path
           d="m 293.751,209.349 -48.076,91.872 28.529,0 6.976,-13.369 32.213,-0.002 3.188,13.371 28.526,0 -21.987,-91.872 -29.369,0 z m -1.027,56.425 10.554,-20.145 4.87,20.145 -15.424,0 z"
           id="path4146"
           inkscape:connector-curvature="0"
           style="fill:#f2f2f2" /><path
           d="m 428.164,242.631 c 0,-21.097 -14.269,-33.282 -34.329,-33.282 l -43.533,0 0,91.881 27.483,0 0,-26.798 6.687,0 5.458,-0.016 13.306,26.813 28.531,0 L 414.8,268.81 c 8.322,-5.301 13.364,-14.286 13.364,-26.179 z m -38.19,9.667 -12.188,0 0,-18.575 12.188,0 c 7.427,0 10.248,3.716 10.248,9.361 -10e-4,5.501 -2.821,9.214 -10.248,9.214 z"
           id="path4148"
           inkscape:connector-curvature="0"
           style="fill:#f2f2f2" /><polygon
           points="521.946,209.349 432.229,209.349 432.229,233.705 458.197,233.705 458.197,301.23 473.844,301.23 485.659,278.628 485.659,233.705 509.212,233.705 "
           id="polygon4150"
           style="fill:#f2f2f2" /></g><g
         id="g4152"><rect
           x="586.19501"
           y="96.913002"
           width="27.457001"
           height="91.867996"
           id="rect4154"
           style="fill:#f2f2f2" /><path
           d="m 352.65,96.958 -12.338,23.555 7.577,0 c 13.525,0 22.089,8.645 22.089,22.322 0,13.518 -8.564,22.166 -22.089,22.166 l -8.562,0 0,-42.606 -26.561,50.707 0,15.665 36.954,0 c 29.778,0 47.282,-17.955 47.282,-45.933 C 397.001,115.782 380.64,98.107 352.65,96.958 Z"
           id="path4156"
           inkscape:connector-curvature="0"
           style="fill:#f2f2f2" /><polygon
           points="470.949,154.501 470.949,131.191 431.718,131.191 431.718,121.266 474.388,121.266 474.388,96.913 404.263,96.913 404.263,188.781 474.388,188.781 474.388,164.429 431.718,164.429 431.718,154.501 "
           id="polygon4158"
           style="fill:#f2f2f2" /><polygon
           points="503.398,188.778 532.717,188.778 580.837,96.913 552.305,96.913 523.208,152.506 509.898,96.913 481.398,96.913 "
           id="polygon4160"
           style="fill:#f2f2f2" /><polygon
           points="904.474,96.906 814.756,96.906 814.756,121.262 840.724,121.262 840.724,188.787 856.372,188.787 868.187,166.186 868.187,121.262 891.739,121.262 "
           id="polygon4162"
           style="fill:#f2f2f2" /><path
           d="m 667.113,96.913 -48.089,91.865 28.481,0 7.001,-13.385 32.182,-0.001 3.195,13.386 28.489,0.003 -21.988,-91.868 -29.271,0 z m -1.068,56.426 10.537,-20.126 4.867,20.126 -15.404,0 z"
           id="path4164"
           inkscape:connector-curvature="0"
           style="fill:#f2f2f2" /><polygon
           points="808.87,188.781 808.87,96.913 781.419,96.913 781.419,140.43 750.667,96.913 723.588,96.913 723.588,188.781 751.037,188.781 751.037,142.125 785.082,188.781 "
           id="polygon4166"
           style="fill:#f2f2f2" /></g></g></g><g
     id="Construction"
     display="none"
     style="display:none"
     transform="translate(0,124.01999)"><line
       display="inline"
       stroke-miterlimit="10"
       x1="225.09"
       y1="340.436"
       x2="372.871"
       y2="58.310001"
       id="line4169"
       style="display:inline;fill:none;stroke:#868686;stroke-width:0.40000001;stroke-miterlimit:10;stroke-dasharray:2" /><line
       display="inline"
       stroke-miterlimit="10"
       x1="453.29501"
       y1="340.436"
       x2="601.07703"
       y2="58.310001"
       id="line4171"
       style="display:inline;fill:none;stroke:#868686;stroke-width:0.40000001;stroke-miterlimit:10;stroke-dasharray:2" /><line
       display="inline"
       stroke-miterlimit="10"
       x1="539.56598"
       y1="340.435"
       x2="687.27899"
       y2="58.566002"
       id="line4173"
       style="display:inline;fill:none;stroke:#868686;stroke-width:0.40000001;stroke-miterlimit:10;stroke-dasharray:2" /><line
       display="inline"
       stroke-miterlimit="10"
       x1="776.92102"
       y1="340.436"
       x2="924.703"
       y2="58.310001"
       id="line4175"
       style="display:inline;fill:none;stroke:#868686;stroke-width:0.40000001;stroke-miterlimit:10;stroke-dasharray:2" /><line
       display="inline"
       stroke-miterlimit="10"
       x1="110.935"
       y1="342.52802"
       x2="259.81201"
       y2="58.310001"
       id="line4177"
       style="display:inline;fill:none;stroke:#868686;stroke-width:0.40000001;stroke-miterlimit:10;stroke-dasharray:2" /><line
       display="inline"
       stroke-miterlimit="10"
       x1="52.557999"
       y1="342.52802"
       x2="201.435"
       y2="58.310001"
       id="line4179"
       style="display:inline;fill:none;stroke:#868686;stroke-width:0.40000001;stroke-miterlimit:10;stroke-dasharray:2" /><line
       display="inline"
       stroke-miterlimit="10"
       x1="67.070999"
       y1="188.778"
       x2="921.72198"
       y2="188.778"
       id="line4181"
       style="display:inline;fill:none;stroke:#9c9b9b;stroke-width:0.25;stroke-miterlimit:10;stroke-dasharray:2" /><line
       display="inline"
       stroke-miterlimit="10"
       x1="67.070999"
       y1="96.913002"
       x2="921.72198"
       y2="96.913002"
       id="line4183"
       style="display:inline;fill:none;stroke:#9c9b9b;stroke-width:0.25;stroke-miterlimit:10;stroke-dasharray:2" /><line
       display="inline"
       stroke-miterlimit="10"
       x1="67.070999"
       y1="301.22101"
       x2="921.72198"
       y2="301.22101"
       id="line4185"
       style="display:inline;fill:none;stroke:#9c9b9b;stroke-width:0.25;stroke-miterlimit:10;stroke-dasharray:2" /><line
       display="inline"
       stroke-miterlimit="10"
       x1="67.070999"
       y1="209.34"
       x2="921.72198"
       y2="209.34"
       id="line4187"
       style="display:inline;fill:none;stroke:#9c9b9b;stroke-width:0.25;stroke-miterlimit:10;stroke-dasharray:2" /><line
       display="inline"
       stroke-miterlimit="10"
       x1="354.46301"
       y1="340.435"
       x2="287.14001"
       y2="58.310001"
       id="line4189"
       style="display:inline;fill:none;stroke:#868686;stroke-width:0.2;stroke-miterlimit:10;stroke-dasharray:2" /><line
       display="inline"
       stroke-miterlimit="10"
       x1="539.56598"
       y1="340.436"
       x2="472.66299"
       y2="60.07"
       id="line4191"
       style="display:inline;fill:none;stroke:#868686;stroke-width:0.2;stroke-miterlimit:10;stroke-dasharray:2" /><line
       display="inline"
       stroke-miterlimit="10"
       x1="754.54102"
       y1="340.436"
       x2="687.21802"
       y2="58.310001"
       id="line4193"
       style="display:inline;fill:none;stroke:#868686;stroke-width:0.2;stroke-miterlimit:10;stroke-dasharray:2" /></g><g
     id="Guidelines"
     display="none"
     style="display:none"
     transform="translate(0,124.01999)"><line
       display="inline"
       stroke-miterlimit="10"
       x1="27.070999"
       y1="188.778"
       x2="904.47498"
       y2="188.778"
       id="line4196"
       style="display:inline;fill:none;stroke:#9c9b9b;stroke-width:0.25;stroke-miterlimit:10;stroke-dasharray:2" /><line
       display="inline"
       stroke-miterlimit="10"
       x1="27.070999"
       y1="137.778"
       x2="93.683998"
       y2="137.778"
       id="line4198"
       style="display:inline;fill:none;stroke:#9c9b9b;stroke-width:0.25;stroke-miterlimit:10;stroke-dasharray:2" /><line
       display="inline"
       stroke-miterlimit="10"
       x1="220.14301"
       y1="96.905998"
       x2="220.14301"
       y2="364.52802"
       id="line4200"
       style="display:inline;fill:none;stroke:#9c9b9b;stroke-width:0.25;stroke-miterlimit:10;stroke-dasharray:2" /><line
       display="inline"
       stroke-miterlimit="10"
       x1="245.649"
       y1="96.905998"
       x2="245.649"
       y2="364.52802"
       id="line4202"
       style="display:inline;fill:none;stroke:#9c9b9b;stroke-width:0.25;stroke-miterlimit:10;stroke-dasharray:2" /><g
       display="inline"
       id="g4204"
       style="display:inline"><path
         d="m -0.272,163.624 3.727,5.654 -3.223,0 -2.196,-3.403 -2.197,3.403 -3.151,0 3.727,-5.654 -3.547,-5.401 3.223,0 1.999,3.151 2.053,-3.151 3.133,0 -3.548,5.401 z"
         id="path4206"
         inkscape:connector-curvature="0"
         style="fill:#6f6f6e" /></g><g
       display="inline"
       id="g4208"
       style="display:inline"><g
         id="g4210"><line
           stroke-miterlimit="10"
           x1="12.807"
           y1="139.028"
           x2="12.807"
           y2="187.76601"
           id="line4212"
           style="fill:none;stroke:#6f6f6e;stroke-width:0.5;stroke-miterlimit:10" /><g
           id="g4214"><circle
             cx="12.807"
             cy="139.09399"
             r="1.316"
             id="circle4216"
             style="fill:#6f6f6e" /></g><g
           id="g4218"><circle
             cx="12.807"
             cy="187.7"
             r="1.316"
             id="circle4220"
             style="fill:#6f6f6e" /></g></g></g><g
       display="inline"
       id="g4222"
       style="display:inline"><path
         d="m 215.662,386 c 0,-3.367 1.854,-5.708 4.573,-5.708 2.719,0 4.591,2.341 4.591,5.708 0,3.367 -1.873,5.707 -4.591,5.707 -2.718,0 -4.573,-2.339 -4.573,-5.707 z m 2.791,0 c 0,1.71 0.504,3.168 1.782,3.168 1.278,0 1.783,-1.458 1.783,-3.168 0,-1.711 -0.504,-3.17 -1.783,-3.17 -1.279,0 -1.782,1.46 -1.782,3.17 z"
         id="path4224"
         inkscape:connector-curvature="0"
         style="fill:#6f6f6e" /><path
         d="m 226.84,388.287 c 0.937,0 1.675,0.721 1.675,1.675 0,0.954 -0.738,1.692 -1.675,1.692 -0.918,0 -1.656,-0.738 -1.656,-1.692 0,-0.954 0.738,-1.675 1.656,-1.675 z"
         id="path4226"
         inkscape:connector-curvature="0"
         style="fill:#6f6f6e" /><path
         d="m 232.096,387.081 -2.322,0 0,-6.607 6.806,0 0,2.467 -4.483,0 0,1.656 c 0.342,-0.198 0.973,-0.396 1.675,-0.396 2.232,0 3.619,1.512 3.619,3.691 0,2.286 -1.584,3.816 -3.979,3.816 -2.502,0 -4.051,-1.477 -4.213,-3.727 l 2.809,0 c 0.09,0.773 0.576,1.297 1.422,1.297 0.756,0 1.278,-0.559 1.278,-1.387 0,-0.793 -0.486,-1.387 -1.333,-1.387 -0.541,0 -0.955,0.252 -1.279,0.577 z"
         id="path4228"
         inkscape:connector-curvature="0"
         style="fill:#6f6f6e" /><path
         d="m 248.478,385.874 3.727,5.654 -3.223,0 -2.197,-3.402 -2.196,3.402 -3.151,0 3.727,-5.654 -3.547,-5.4 3.223,0 1.999,3.15 2.053,-3.15 3.133,0 -3.548,5.4 z"
         id="path4230"
         inkscape:connector-curvature="0"
         style="fill:#6f6f6e" /></g><g
       display="inline"
       id="g4232"
       style="display:inline"><g
         id="g4234"><line
           stroke-miterlimit="10"
           x1="221.306"
           y1="368.77802"
           x2="245.13901"
           y2="368.77802"
           id="line4236"
           style="fill:none;stroke:#6f6f6e;stroke-width:0.5;stroke-miterlimit:10" /><g
           id="g4238"><circle
             cx="221.37199"
             cy="368.77802"
             r="1.316"
             id="circle4240"
             style="fill:#6f6f6e" /></g><g
           id="g4242"><circle
             cx="245.073"
             cy="368.77802"
             r="1.316"
             id="circle4244"
             style="fill:#6f6f6e" /></g></g></g><g
       display="inline"
       id="g4246"
       style="display:inline"><g
         id="g4248"><line
           stroke-miterlimit="10"
           x1="38.055"
           y1="47.027"
           x2="38.055"
           y2="95.765999"
           id="line4250"
           style="fill:none;stroke:#6f6f6e;stroke-width:0.5;stroke-miterlimit:10" /><g
           id="g4252"><circle
             cx="38.055"
             cy="47.092999"
             r="1.316"
             id="circle4254"
             style="fill:#6f6f6e" /></g><g
           id="g4256"><circle
             cx="38.055"
             cy="95.699997"
             r="1.316"
             id="circle4258"
             style="fill:#6f6f6e" /></g></g></g><g
       display="inline"
       id="g4260"
       style="display:inline"><path
         d="m 70.062,29.161 3.727,5.654 -3.223,0 -2.196,-3.403 -2.197,3.403 -3.151,0 3.727,-5.654 -3.547,-5.401 3.223,0 1.999,3.151 2.053,-3.151 3.133,0 -3.548,5.401 z"
         id="path4262"
         inkscape:connector-curvature="0"
         style="fill:#6f6f6e" /></g><g
       display="inline"
       id="g4264"
       style="display:inline"><path
         d="m 26.562,70.327 3.727,5.654 -3.223,0 -2.196,-3.403 -2.197,3.403 -3.151,0 3.727,-5.654 -3.547,-5.401 3.223,0 1.999,3.151 2.053,-3.151 3.133,0 -3.548,5.401 z"
         id="path4266"
         inkscape:connector-curvature="0"
         style="fill:#6f6f6e" /></g><g
       display="inline"
       id="g4268"
       style="display:inline"><g
         id="g4270"><line
           stroke-miterlimit="10"
           x1="92.542999"
           y1="41.528"
           x2="43.805"
           y2="41.528"
           id="line4272"
           style="fill:none;stroke:#6f6f6e;stroke-width:0.5;stroke-miterlimit:10" /><g
           id="g4274"><circle
             cx="92.477997"
             cy="41.528"
             r="1.316"
             id="circle4276"
             style="fill:#6f6f6e" /></g><g
           id="g4278"><circle
             cx="43.870998"
             cy="41.528"
             r="1.316"
             id="circle4280"
             style="fill:#6f6f6e" /></g></g></g><rect
       x="16.805"
       y="137.88699"
       display="inline"
       width="8.1239996"
       height="51.02"
       id="rect4282"
       style="display:inline;fill:#d9d9d9" /><rect
       x="93.683998"
       y="45.886002"
       display="inline"
       width="8.1239996"
       height="51.02"
       id="rect4284"
       style="display:inline;fill:#d9d9d9" /><rect
       x="896.34998"
       y="45.886002"
       display="inline"
       width="8.1239996"
       height="51.02"
       id="rect4286"
       style="display:inline;fill:#d9d9d9" /><rect
       x="93.683998"
       y="301.23001"
       display="inline"
       width="8.1239996"
       height="51.021"
       id="rect4288"
       style="display:inline;fill:#d9d9d9" /><rect
       x="896.34998"
       y="301.23001"
       display="inline"
       width="8.1239996"
       height="51.021"
       id="rect4290"
       style="display:inline;fill:#d9d9d9" /><rect
       x="42.665001"
       y="96.913002"
       display="inline"
       width="51.02"
       height="8.1239996"
       id="rect4292"
       style="display:inline;fill:#d9d9d9" /><rect
       x="42.665001"
       y="293.091"
       display="inline"
       width="51.02"
       height="8.1239996"
       id="rect4294"
       style="display:inline;fill:#d9d9d9" /><rect
       x="904.47498"
       y="96.913002"
       display="inline"
       width="51.02"
       height="8.1239996"
       id="rect4296"
       style="display:inline;fill:#d9d9d9" /><rect
       x="904.47498"
       y="293.091"
       display="inline"
       width="51.02"
       height="8.1239996"
       id="rect4298"
       style="display:inline;fill:#d9d9d9" /><rect
       x="93.683998"
       y="96.905998"
       display="inline"
       stroke-miterlimit="10"
       width="810.78998"
       height="204.32401"
       id="rect4300"
       style="display:inline;fill:none;stroke:#9c9b9b;stroke-width:0.25;stroke-miterlimit:10;stroke-dasharray:2" /><rect
       x="42.665001"
       y="45.886002"
       display="inline"
       stroke-miterlimit="10"
       width="912.83002"
       height="306.36301"
       id="rect4302"
       style="display:inline;fill:none;stroke:#9c9b9b;stroke-width:0.25;stroke-miterlimit:10;stroke-dasharray:2" /></g></svg>