<?xml version="1.0" encoding="UTF-8" standalone="no"?>
<svg
   xmlns:dc="http://purl.org/dc/elements/1.1/"
   xmlns:cc="http://creativecommons.org/ns#"
   xmlns:rdf="http://www.w3.org/1999/02/22-rdf-syntax-ns#"
   xmlns:svg="http://www.w3.org/2000/svg"
   xmlns="http://www.w3.org/2000/svg"
   xmlns:sodipodi="http://sodipodi.sourceforge.net/DTD/sodipodi-0.dtd"
   xmlns:inkscape="http://www.inkscape.org/namespaces/inkscape"
   viewBox="-0.2 -1 960 520"
   id="svg2"
   version="1.1"
   inkscape:version="0.91 r13725"
   sodipodi:docname="github.svg"
   width="960"
   height="520">
  <metadata
     id="metadata24">
    <rdf:RDF>
      <cc:Work
         rdf:about="">
        <dc:format>image/svg+xml</dc:format>
        <dc:type
           rdf:resource="http://purl.org/dc/dcmitype/StillImage" />
        <dc:title></dc:title>
      </cc:Work>
    </rdf:RDF>
  </metadata>
  <defs
     id="defs22" />
  <sodipodi:namedview
     pagecolor="#ffffff"
     bordercolor="#666666"
     borderopacity="1"
     objecttolerance="10"
     gridtolerance="10"
     guidetolerance="10"
     inkscape:pageopacity="0"
     inkscape:pageshadow="2"
     inkscape:window-width="1317"
     inkscape:window-height="744"
     id="namedview20"
     showgrid="false"
     inkscape:zoom="0.70658683"
     inkscape:cx="394.71186"
     inkscape:cy="167"
     inkscape:window-x="49"
     inkscape:window-y="24"
     inkscape:window-maximized="1"
     inkscape:current-layer="svg2" />
  <rect
     style="opacity:1;fill:#ffffff;fill-opacity:1;fill-rule:nonzero;stroke:none;stroke-width:4;stroke-miterlimit:4;stroke-dasharray:none;stroke-opacity:0.58823529"
     id="rect4167"
     width="960"
     height="520"
     x="-0.2"
     y="-1" />
  <g
     id="g4152"
     transform="matrix(0.69789546,0,0,0.69789546,347.7348,190.39625)">
    <path
       style="fill:#9cdaf1"
       inkscape:connector-curvature="0"
       d="m 296.94,227.43 c 0,20.533 -47.56,37.176 -106.22,37.176 -58.67,0 -106.23,-16.643 -106.23,-37.176 0,-20.533 47.558,-37.18 106.23,-37.18 58.66,0 106.22,16.65 106.22,37.18 z"
       id="puddle" />
    <g
       transform="translate(0,-68)"
       style="fill:#7dbbe6"
       id="shadow-legs">
      <path
         inkscape:connector-curvature="0"
         id="path6"
         d="m 161.85,331.22 0,-26.5 c 0,-3.422 -0.619,-6.284 -1.653,-8.701 6.853,5.322 7.316,18.695 7.316,18.695 l 0,17.004 c 6.166,0.481 12.534,0.773 19.053,0.861 l -0.172,-16.92 c -0.944,-23.13 -20.769,-25.961 -20.769,-25.961 -7.245,-1.645 -7.137,1.991 -6.409,4.34 -7.108,-12.122 -26.158,-10.556 -26.158,-10.556 -6.611,2.357 -0.475,6.607 -0.475,6.607 10.387,3.775 11.33,15.105 11.33,15.105 l 0,23.622 c 5.72,0.98 11.71,1.79 17.94,2.4 z" />
      <path
         inkscape:connector-curvature="0"
         id="path8"
         d="m 245.4,283.48 c 0,0 -19.053,-1.566 -26.16,10.559 0.728,-2.35 0.839,-5.989 -6.408,-4.343 0,0 -19.824,2.832 -20.768,25.961 l -0.174,16.946 c 6.509,-0.025 12.876,-0.254 19.054,-0.671 l 0,-17.219 c 0,0 0.465,-13.373 7.316,-18.695 -1.034,2.417 -1.653,5.278 -1.653,8.701 l 0,26.775 c 6.214,-0.544 12.211,-1.279 17.937,-2.188 l 0,-24.113 c 0,0 0.944,-11.33 11.33,-15.105 0,-0.01 6.13,-4.26 -0.48,-6.62 z" />
    </g>
    <path
       inkscape:connector-curvature="0"
       d="m 378.18,73.32 0.28,-1.389 c -31.162,-6.231 -63.141,-6.294 -82.487,-5.49 3.178,-11.451 4.134,-24.627 4.134,-39.32 0,-21.073 -7.917,-37.931 -20.77,-50.759 2.246,-7.25 5.246,-23.351 -2.996,-43.963 0,0 -14.541,-4.617 -47.431,17.396 -12.884,-3.22 -26.596,-4.81 -40.328,-4.81 -15.109,0 -30.376,1.924 -44.615,5.83 -33.94,-23.154 -48.923,-18.411 -48.923,-18.411 -9.78,24.457 -3.733,42.566 -1.896,47.063 C 81.653,-8.127 74.635,7.71 74.635,27.126 c 0,14.658 1.669,27.808 5.745,39.237 -19.511,-0.71 -50.323,-0.437 -80.373,5.572 l 0.276,1.389 c 30.231,-6.046 61.237,-6.256 80.629,-5.522 0.898,2.366 1.899,4.661 3.021,6.879 C 64.756,75.299 32.011,77.743 0.63,86.596 l 0.387,1.36 c 31.629,-8.918 64.658,-11.301 83.649,-11.882 11.458,21.358 34.048,35.152 74.236,39.484 -5.704,3.833 -11.523,10.349 -13.881,21.374 -7.773,3.718 -32.379,12.793 -47.142,-12.599 0,0 -8.264,-15.109 -24.082,-16.292 0,0 -15.344,-0.235 -1.059,9.562 0,0 10.267,4.838 17.351,23.019 0,0 9.241,31.01 53.835,21.061 l 0,32.032 c 0,0 -0.943,11.33 -11.33,15.105 0,0 -6.137,4.249 0.475,6.606 0,0 28.792,2.361 28.792,-21.238 l 0,-34.929 c 0,0 -1.142,-13.852 5.663,-18.667 l 0,57.371 c 0,0 -0.47,13.688 -7.551,18.881 0,0 -4.723,8.494 5.663,6.137 0,0 19.824,-2.832 20.769,-25.961 l 0.449,-58.06 4.765,0 0.453,58.06 c 0.943,23.129 20.768,25.961 20.768,25.961 10.383,2.357 5.663,-6.137 5.663,-6.137 -7.08,-5.193 -7.551,-18.881 -7.551,-18.881 l 0,-56.876 c 6.801,5.296 5.663,18.171 5.663,18.171 l 0,34.929 c 0,23.6 28.793,21.238 28.793,21.238 6.606,-2.357 0.474,-6.606 0.474,-6.606 -10.386,-3.775 -11.33,-15.105 -11.33,-15.105 l 0,-45.786 c 0,-17.854 -7.518,-27.309 -14.87,-32.3 42.859,-4.25 63.426,-18.089 72.903,-39.591 18.773,0.516 52.557,2.803 84.873,11.919 l 0.384,-1.36 c -32.131,-9.063 -65.692,-11.408 -84.655,-11.96 0.898,-2.172 1.682,-4.431 2.378,-6.755 19.25,-0.8 51.38,-0.79 82.66,5.46 z"
       id="cat" />
    <path
       style="fill:#f4cbb2"
       inkscape:connector-curvature="0"
       d="m 258.19,26.132 c 9.231,8.363 14.631,18.462 14.631,29.343 0,50.804 -37.872,52.181 -84.585,52.181 -46.721,0 -84.589,-7.035 -84.589,-52.181 0,-10.809 5.324,-20.845 14.441,-29.174 15.208,-13.881 40.946,-6.531 70.147,-6.531 29.07,-0.004 54.72,-7.429 69.95,6.357 z"
       id="face" />
    <path
       style="fill:#ffffff"
       inkscape:connector-curvature="0"
       d="m 160.1,58.06 c 0,13.994 -7.88,25.336 -17.6,25.336 -9.72,0 -17.6,-11.342 -17.6,-25.336 0,-13.992 7.88,-25.33 17.6,-25.33 9.72,0.01 17.6,11.34 17.6,25.33 z m 94.43,0 c 0,13.994 -7.88,25.336 -17.6,25.336 -9.72,0 -17.6,-11.342 -17.6,-25.336 0,-13.992 7.88,-25.33 17.6,-25.33 9.72,0.01 17.6,11.34 17.6,25.33 z"
       id="eyes" />
    <g
       transform="translate(0,-68)"
       style="fill:#ad5c51"
       id="g13">
      <path
         inkscape:connector-curvature="0"
         d="m 154.46,126.38 c 0,9.328 -5.26,16.887 -11.734,16.887 -6.474,0 -11.733,-7.559 -11.733,-16.887 0,-9.331 5.255,-16.894 11.733,-16.894 6.47,0 11.73,7.56 11.73,16.89 z m 94.42,0 c 0,9.328 -5.26,16.887 -11.734,16.887 -6.474,0 -11.733,-7.559 -11.733,-16.887 0,-9.331 5.255,-16.894 11.733,-16.894 6.47,0 11.73,7.56 11.73,16.89 z"
         id="pupils" />
      <circle
         r="4.401"
         cy="148.56"
         cx="188.5"
         id="nose" />
      <path
         inkscape:connector-curvature="0"
         d="m 178.23,159.69 c -0.26,-0.738 0.128,-1.545 0.861,-1.805 0.737,-0.26 1.546,0.128 1.805,0.861 1.134,3.198 4.167,5.346 7.551,5.346 3.384,0 6.417,-2.147 7.551,-5.346 0.26,-0.738 1.067,-1.121 1.805,-0.861 0.738,0.26 1.121,1.067 0.862,1.805 -1.529,4.324 -5.639,7.229 -10.218,7.229 -4.579,0 -8.68,-2.89 -10.21,-7.22 z"
         id="mouth" />
    </g>
    <path
       style="fill:#c3e4d8"
       inkscape:connector-curvature="0"
       d="m 80.641,111.82 c 0,1.174 -1.376,2.122 -3.07,2.122 -1.693,0 -3.07,-0.948 -3.07,-2.122 0,-1.175 1.377,-2.127 3.07,-2.127 1.694,0 3.07,0.95 3.07,2.13 z m 8.5,4.72 c 0,1.174 -1.376,2.122 -3.07,2.122 -1.693,0 -3.07,-0.948 -3.07,-2.122 0,-1.175 1.377,-2.127 3.07,-2.127 1.694,0 3.07,0.95 3.07,2.13 z m 5.193,6.14 c 0,1.174 -1.376,2.122 -3.07,2.122 -1.693,0 -3.07,-0.948 -3.07,-2.122 0,-1.175 1.377,-2.127 3.07,-2.127 1.694,0 3.07,0.95 3.07,2.13 z m 4.72,7.08 c 0,1.174 -1.376,2.122 -3.07,2.122 -1.693,0 -3.07,-0.948 -3.07,-2.122 0,-1.175 1.377,-2.127 3.07,-2.127 1.694,0 3.07,0.95 3.07,2.13 z m 5.188,6.61 c 0,1.174 -1.376,2.122 -3.07,2.122 -1.693,0 -3.07,-0.948 -3.07,-2.122 0,-1.175 1.377,-2.127 3.07,-2.127 1.694,0 3.07,0.95 3.07,2.13 z m 7.09,5.66 c 0,1.174 -1.376,2.122 -3.07,2.122 -1.693,0 -3.07,-0.948 -3.07,-2.122 0,-1.175 1.377,-2.127 3.07,-2.127 1.694,0 3.07,0.95 3.07,2.13 z m 9.91,3.78 c 0,1.174 -1.376,2.122 -3.07,2.122 -1.693,0 -3.07,-0.948 -3.07,-2.122 0,-1.175 1.377,-2.127 3.07,-2.127 1.694,0 3.07,0.95 3.07,2.13 z m 9.87,0 c 0,1.174 -1.376,2.122 -3.07,2.122 -1.693,0 -3.07,-0.948 -3.07,-2.122 0,-1.175 1.377,-2.127 3.07,-2.127 1.694,0 3.07,0.95 3.07,2.13 z m 10.01,-1.64 c 0,1.174 -1.376,2.122 -3.07,2.122 -1.693,0 -3.07,-0.948 -3.07,-2.122 0,-1.175 1.377,-2.127 3.07,-2.127 1.694,0 3.07,0.95 3.07,2.13 z"
       id="octo" />
    <path
       style="fill:#9cdaf1"
       inkscape:connector-curvature="0"
       d="m 69.369,118.12 -3.066,10.683 c 0,0 -0.8,3.861 2.84,4.546 3.8,-0.074 3.486,-3.627 3.223,-4.781 z"
       id="drop" />
  </g>
</svg>
