<?xml version="1.0" encoding="UTF-8" standalone="no"?>
<!-- Created with Inkscape (http://www.inkscape.org/) -->

<svg
   xmlns:dc="http://purl.org/dc/elements/1.1/"
   xmlns:cc="http://creativecommons.org/ns#"
   xmlns:rdf="http://www.w3.org/1999/02/22-rdf-syntax-ns#"
   xmlns:svg="http://www.w3.org/2000/svg"
   xmlns="http://www.w3.org/2000/svg"
   xmlns:xlink="http://www.w3.org/1999/xlink"
   xmlns:sodipodi="http://sodipodi.sourceforge.net/DTD/sodipodi-0.dtd"
   xmlns:inkscape="http://www.inkscape.org/namespaces/inkscape"
   width="960"
   height="520"
   id="svg2816"
   version="1.1"
   inkscape:version="0.91 r13725"
   sodipodi:docname="soundcloud.svg">
  <defs
     id="defs2818">
    <linearGradient
       inkscape:collect="always"
       id="linearGradient4188">
      <stop
         style="stop-color:#f79810;stop-opacity:1"
         offset="0"
         id="stop4190" />
      <stop
         style="stop-color:#f8310e;stop-opacity:1"
         offset="1"
         id="stop4192" />
    </linearGradient>
    <inkscape:perspective
       sodipodi:type="inkscape:persp3d"
       inkscape:vp_x="0 : 32 : 1"
       inkscape:vp_y="0 : 1000 : 0"
       inkscape:vp_z="64 : 32 : 1"
       inkscape:persp3d-origin="32 : 21.333333 : 1"
       id="perspective2824" />
    <inkscape:perspective
       id="perspective2846"
       inkscape:persp3d-origin="0.5 : 0.33333333 : 1"
       inkscape:vp_z="1 : 0.5 : 1"
       inkscape:vp_y="0 : 1000 : 0"
       inkscape:vp_x="0 : 0.5 : 1"
       sodipodi:type="inkscape:persp3d" />
    <linearGradient
       inkscape:collect="always"
       xlink:href="#linearGradient4188"
       id="linearGradient4194"
       x1="50.225937"
       y1="-455.078"
       x2="50.218342"
       y2="63.856953"
       gradientUnits="userSpaceOnUse" />
  </defs>
  <sodipodi:namedview
     id="base"
     pagecolor="#ffffff"
     bordercolor="#666666"
     borderopacity="1.0"
     inkscape:pageopacity="0.0"
     inkscape:pageshadow="2"
     inkscape:zoom="0.9722718"
     inkscape:cx="537.23981"
     inkscape:cy="182.09329"
     inkscape:current-layer="layer1"
     showgrid="true"
     inkscape:document-units="px"
     inkscape:grid-bbox="true"
     inkscape:window-width="1317"
     inkscape:window-height="744"
     inkscape:window-x="49"
     inkscape:window-y="24"
     inkscape:window-maximized="1" />
  <metadata
     id="metadata2821">
    <rdf:RDF>
      <cc:Work
         rdf:about="">
        <dc:format>image/svg+xml</dc:format>
        <dc:type
           rdf:resource="http://purl.org/dc/dcmitype/StillImage" />
        <dc:title />
      </cc:Work>
    </rdf:RDF>
  </metadata>
  <g
     id="layer1"
     inkscape:label="Layer 1"
     inkscape:groupmode="layer"
     transform="translate(0,456)">
    <rect
       style="opacity:1;fill:url(#linearGradient4194);fill-opacity:1;fill-rule:nonzero;stroke:none;stroke-width:4;stroke-miterlimit:4;stroke-dasharray:none;stroke-opacity:0.58823529"
       id="rect4138"
       width="960"
       height="520"
       x="0"
       y="-456" />
    <path
       d="m 308.54962,-204.87072 c -0.73202,0 -1.31309,0.56602 -1.40743,1.37343 l -2.56572,19.48842 2.56572,19.1525 c 0.094,0.8075 0.67541,1.3697 1.40743,1.3697 0.70932,0 1.28662,-0.55844 1.39984,-1.36213 l 0,0 0,-0.004 c 0,0 0,0 0,0.004 l 3.04117,-19.16007 -3.04117,-19.49217 c -0.10963,-0.80366 -0.69428,-1.36968 -1.39984,-1.36968 z m 14.42854,-10.64784 c -0.121,-0.83765 -0.72068,-1.41495 -1.46021,-1.41495 -0.74331,0 -1.35836,0.59617 -1.46022,1.41495 0,0.006 -3.44865,31.50969 -3.44865,31.50969 l 3.44865,30.81156 c 0.098,0.8263 0.71315,1.42247 1.46022,1.42247 0.73577,0 1.33569,-0.58106 1.45645,-1.41488 l 3.92406,-30.81915 -3.9203,-31.50969 z m 54.34858,-29.0646 c -1.41493,0 -2.58465,1.15835 -2.65255,2.62985 l -2.74682,57.97081 2.74682,37.46368 c 0.0714,1.46397 1.23762,2.61858 2.65255,2.61858 1.40737,0 2.57327,-1.15837 2.65625,-2.62608 l 0,0.0125 3.10538,-37.46744 -3.10538,-57.97083 c -0.0827,-1.4715 -1.24888,-2.62985 -2.65625,-2.62985 z m -28.12892,20.14862 c -1.08665,0 -1.97339,0.86787 -2.06015,2.02623 l -3.094,38.41072 3.094,37.16182 c 0.0828,1.15085 0.9735,2.01865 2.06015,2.01865 1.07538,0 1.96204,-0.8678 2.05639,-2.01865 l 3.51659,-37.16182 -3.51659,-38.41832 c -0.094,-1.15076 -0.98101,-2.01863 -2.05639,-2.01863 z m 56.71436,80.53054 c 1.75454,0 3.18077,-1.41495 3.25243,-3.22609 l 2.69405,-36.83352 -2.69023,-77.17995 c -0.0714,-1.81115 -1.49795,-3.22604 -3.25248,-3.22604 -1.76965,0 -3.19964,1.41866 -3.25627,3.2298 0,0.004 -2.38837,77.17243 -2.38837,77.17243 l 2.38837,36.84863 c 0.0564,1.79604 1.48662,3.21474 3.2525,3.21474 z m 58.52168,0.17353 c 2.41482,0 4.40701,-1.98843 4.45226,-4.43344 l 0,0.0264 0,-0.0264 1.87906,-35.77708 -1.87906,-89.1371 c -0.0414,-2.44122 -2.03744,-4.43347 -4.45226,-4.43347 -2.41859,0 -4.4146,1.98849 -4.45235,4.43724 l -1.67905,89.10311 c 0,0.0563 1.67905,35.82995 1.67905,35.82995 0.0376,2.42236 2.0375,4.41078 4.45235,4.41078 z m -29.48344,-0.13959 c 2.10161,0 3.79575,-1.6866 3.85235,-3.83725 l 0,0.0262 2.28658,-36.27515 -2.29035,-77.73839 c -0.0564,-2.15066 -1.75069,-3.83347 -3.85234,-3.83347 -2.11677,0 -3.81093,1.68281 -3.85619,3.83347 l -2.03375,77.74215 2.03751,36.26762 c 0.0451,2.12804 1.73942,3.81462 3.85619,3.81462 z m -71.74282,-0.33954 c 1.24887,0 2.26012,-0.99987 2.3544,-2.31671 l 3.31285,-37.47126 -3.31285,-35.64502 c -0.0904,-1.31685 -1.10177,-2.30921 -2.3544,-2.30921 -1.26782,0 -2.27899,0.99988 -2.35823,2.32431 l -2.91666,35.62992 2.91666,37.46742 c 0.0827,1.32068 1.09041,2.32055 2.35823,2.32055 z m -27.90633,-2.05264 c 0.91313,0 1.65268,-0.72066 1.7583,-1.7168 l 3.72033,-36.02607 -3.71657,-37.38445 c -0.10937,-0.99988 -0.84893,-1.72061 -1.76206,-1.72061 -0.9244,0 -1.66394,0.72448 -1.7583,1.72061 0,0.004 -3.27504,37.38445 -3.27504,37.38445 l 3.27504,36.01855 c 0.0904,0.9999 0.83014,1.72432 1.7583,1.72432 z m 114.33425,-116.72638 c -2.28275,0 -4.11276,1.81485 -4.15802,4.13916 l -1.85639,74.90096 1.85639,36.04118 c 0.0451,2.29405 1.8715,4.10896 4.15802,4.10896 2.27899,0 4.09765,-1.8111 4.15044,-4.1354 l 0,0.0301 2.08286,-36.04118 -2.08286,-74.91229 c -0.0528,-2.31674 -1.87145,-4.13158 -4.15044,-4.13158 z m -58.06887,119.16011 c 1.57713,0 2.87887,-1.2867 2.95433,-2.92801 l 2.8978,-37.21469 -2.8978,-71.22964 c -0.079,-1.64509 -1.3772,-2.92795 -2.95433,-2.92795 -1.59231,0 -2.89027,1.28663 -2.95817,2.92795 0,0.004 -2.56578,71.22964 -2.56578,71.22964 l 2.56954,37.2298 c 0.0639,1.6262 1.3621,2.9129 2.95441,2.9129 z m 32.35855,-3.51284 0,-0.0188 2.49032,-36.59962 -2.49032,-79.77964 c -0.0601,-1.98093 -1.62245,-3.53548 -3.5505,-3.53548 -1.93942,0 -3.50149,1.5508 -3.55435,3.53548 l -2.21103,79.77587 2.21479,36.61852 c 0.0528,1.96201 1.61494,3.51276 3.55059,3.51276 1.93187,0 3.48637,-1.55075 3.5505,-3.52413 l 0,0.0151 z m 188.34855,-82.60574 c -5.91259,0 -11.55345,1.19603 -16.69249,3.35053 C 592.14771,-265.49027 559.53255,-296 519.74837,-296 c -9.73477,0 -19.22429,1.91676 -27.60447,5.1579 -3.25618,1.26024 -4.12407,2.5582 -4.15419,5.07494 l 0,136.9656 c 0.0337,2.64121 2.08275,4.84095 4.65984,5.1013 0.10912,0.0125 118.85067,0.0714 119.62042,0.0714 23.83123,0 43.15356,-19.32238 43.15356,-43.15737 0,-23.83506 -19.31857,-43.16115 -43.1498,-43.16115 z m -133.10569,-55.94083 c -2.59219,0 -4.72023,2.12805 -4.75795,4.74285 l -1.94701,97.21543 1.95077,35.28279 c 0.0338,2.57708 2.162,4.70135 4.75419,4.70135 2.5846,0 4.71265,-2.12427 4.75037,-4.73909 l 0,0.0414 2.11674,-35.28654 -2.11674,-97.22303 c -0.0376,-2.60721 -2.16577,-4.73525 -4.75037,-4.73525 z m -139.74274,169.69396 c -5.10506,-1.19988 -6.48604,-1.8413 -6.48604,-3.86372 0,-1.42622 1.15084,-2.90153 4.59948,-2.90153 2.94681,0 5.24851,1.1961 7.31617,3.31285 l 4.64474,-4.5052 c -3.0374,-3.17318 -6.71622,-5.05979 -11.72695,-5.05979 -6.35401,0 -11.50434,3.5883 -11.50434,9.4329 0,6.34642 4.14293,8.23306 10.07428,9.61026 6.07105,1.37715 7.17656,2.30163 7.17656,4.37306 0,2.43745 -1.7998,3.49773 -5.61065,3.49773 -3.08272,0 -5.98046,-1.05651 -8.23681,-3.68636 l -4.64475,4.14292 c 2.43741,3.58824 7.135,5.84084 12.51175,5.84084 8.79149,0 12.6552,-4.13916 12.6552,-10.25544 0,-6.99547 -5.65974,-8.74241 -10.76864,-9.93852 z m 29.6344,-13.01739 c -8.7839,0 -13.97955,6.80679 -13.97955,16.6057 0,9.7989 5.19565,16.60189 13.97955,16.60189 8.7839,0 13.98714,-6.80299 13.98714,-16.60189 0,-9.79891 -5.20324,-16.6057 -13.98714,-16.6057 z m 0,26.81959 c -5.19566,0 -7.36142,-4.46363 -7.36142,-10.21014 0,-5.7503 2.16576,-10.21394 7.36142,-10.21394 5.20318,0 7.36143,4.46364 7.36143,10.21394 0,5.74651 -2.15825,10.21014 -7.36143,10.21014 z m 39.98039,-8.23299 c 0,5.15033 -2.53559,8.32735 -6.62565,8.32735 -4.09391,0 -6.57664,-3.26754 -6.57664,-8.41793 l 0,-17.99414 -6.44452,0 0,18.08472 c 0,9.38009 5.24842,14.62475 13.02116,14.62475 8.18772,0 13.06642,-5.38428 13.06642,-14.71533 l 0,-17.99414 -6.44077,0 0,18.08472 z m 34.22254,-4.46362 c 0,1.79596 0.0906,5.84083 0.0906,7.03688 -0.41504,-0.83007 -1.47156,-2.43742 -2.25257,-3.63726 l -11.41377,-17.02456 -6.16163,0 0,32.20772 6.35026,0 0,-14.17198 c 0,-1.79605 -0.0906,-5.84088 -0.0906,-7.03699 0.4113,0.82639 1.47532,2.43749 2.2526,3.63736 l 11.82505,17.57161 5.75033,0 0,-32.20772 -6.35025,0 0,13.62493 z m 24.70285,-13.6211 -10.07429,0 0,32.20764 9.61019,0 c 8.28208,0 16.47363,-4.78811 16.47363,-16.10382 0,-11.77979 -6.81057,-16.10382 -16.00954,-16.10382 z m -0.4641,25.95173 -3.16942,0 0,-19.69206 3.40339,0 c 6.8105,0 9.61778,3.26375 9.61778,9.84415 0,5.88986 -3.08643,9.84791 -9.85175,9.84791 z m 36.39215,-20.06186 c 2.8978,0 4.73908,1.29045 5.88986,3.4977 l 5.98043,-2.75816 c -2.02616,-4.18443 -5.70873,-7.13129 -11.77978,-7.13129 -8.41034,0 -14.30404,6.80679 -14.30404,16.6057 0,10.16486 5.65599,16.60189 14.07392,16.60189 5.84459,0 9.70829,-2.71294 11.91564,-7.26715 l -5.42585,-3.22227 c -1.7017,2.85631 -3.40712,4.09765 -6.30494,4.09765 -4.82961,0 -7.63688,-4.41837 -7.63688,-10.21012 -0.004,-5.9767 2.76576,-10.21395 7.59163,-10.21395 z m 23.88782,-5.88987 -6.44076,0 0,32.20765 19.3563,0 0,-6.354 -12.91554,0 0,-25.85365 z m 29.8834,-0.50188 c -8.79141,0 -13.98705,6.80679 -13.98705,16.6057 0,9.7989 5.19564,16.60189 13.98705,16.60189 8.78397,0 13.9834,-6.80299 13.9834,-16.60189 0,-9.79891 -5.19943,-16.6057 -13.9834,-16.6057 z m 0,26.81959 c -5.20316,0 -7.36141,-4.46363 -7.36141,-10.21014 0,-5.7503 2.15825,-10.21394 7.36141,-10.21394 5.19189,0 7.35391,4.46364 7.35391,10.21394 0,5.74651 -2.16202,10.21014 -7.35391,10.21014 z m 39.97286,-8.23299 c 0,5.15033 -2.52422,8.32735 -6.61811,8.32735 -4.10144,0 -6.5804,-3.26754 -6.5804,-8.41792 l 0,-17.99415 -6.44079,0 0,18.08472 c 0,9.38009 5.24468,14.62475 13.02119,14.62475 8.18779,0 13.06265,-5.38427 13.06265,-14.71532 l 0,-17.99415 -6.44454,0 0,18.08472 z m 24.567,-18.08472 -10.07052,0 0,32.20765 9.6102,0 c 8.28591,0 16.46988,-4.78812 16.46988,-16.10383 0,-11.77979 -6.80677,-16.10382 -16.00955,-16.10382 z m -0.46032,25.95173 -3.17317,0 0,-19.69206 3.40713,0 c 6.80301,0 9.61026,3.26375 9.61026,9.84415 0,5.88986 -3.08271,9.84791 -9.84422,9.84791 z"
       id="path4200"
       inkscape:connector-curvature="0"
       style="fill:#ffffff;fill-opacity:1" />
  </g>
</svg>
