<?xml version="1.0" encoding="UTF-8" standalone="no"?>
<!-- Created with Inkscape (http://www.inkscape.org/) -->

<svg
   xmlns:dc="http://purl.org/dc/elements/1.1/"
   xmlns:cc="http://creativecommons.org/ns#"
   xmlns:rdf="http://www.w3.org/1999/02/22-rdf-syntax-ns#"
   xmlns:svg="http://www.w3.org/2000/svg"
   xmlns="http://www.w3.org/2000/svg"
   xmlns:xlink="http://www.w3.org/1999/xlink"
   xmlns:sodipodi="http://sodipodi.sourceforge.net/DTD/sodipodi-0.dtd"
   xmlns:inkscape="http://www.inkscape.org/namespaces/inkscape"
   width="960"
   height="520"
   id="svg2816"
   version="1.1"
   inkscape:version="0.91 r13725"
   sodipodi:docname="soundcloud.svg">
  <defs
     id="defs2818">
    <linearGradient
       inkscape:collect="always"
       id="linearGradient4188">
      <stop
         style="stop-color:#f79810;stop-opacity:1"
         offset="0"
         id="stop4190" />
      <stop
         style="stop-color:#f8310e;stop-opacity:1"
         offset="1"
         id="stop4192" />
    </linearGradient>
    <inkscape:perspective
       sodipodi:type="inkscape:persp3d"
       inkscape:vp_x="0 : 32 : 1"
       inkscape:vp_y="0 : 1000 : 0"
       inkscape:vp_z="64 : 32 : 1"
       inkscape:persp3d-origin="32 : 21.333333 : 1"
       id="perspective2824" />
    <inkscape:perspective
       id="perspective2846"
       inkscape:persp3d-origin="0.5 : 0.33333333 : 1"
       inkscape:vp_z="1 : 0.5 : 1"
       inkscape:vp_y="0 : 1000 : 0"
       inkscape:vp_x="0 : 0.5 : 1"
       sodipodi:type="inkscape:persp3d" />
    <linearGradient
       inkscape:collect="always"
       xlink:href="#linearGradient4188"
       id="linearGradient4194"
       x1="50.225937"
       y1="-455.078"
       x2="50.218342"
       y2="63.856953"
       gradientUnits="userSpaceOnUse" />
  </defs>
  <sodipodi:namedview
     id="base"
     pagecolor="#ffffff"
     bordercolor="#666666"
     borderopacity="1.0"
     inkscape:pageopacity="0.0"
     inkscape:pageshadow="2"
     inkscape:zoom="3.8890872"
     inkscape:cx="27.318062"
     inkscape:cy="505.59707"
     inkscape:current-layer="layer1"
     showgrid="true"
     inkscape:document-units="px"
     inkscape:grid-bbox="true"
     inkscape:window-width="1317"
     inkscape:window-height="744"
     inkscape:window-x="49"
     inkscape:window-y="24"
     inkscape:window-maximized="1" />
  <metadata
     id="metadata2821">
    <rdf:RDF>
      <cc:Work
         rdf:about="">
        <dc:format>image/svg+xml</dc:format>
        <dc:type
           rdf:resource="http://purl.org/dc/dcmitype/StillImage" />
        <dc:title></dc:title>
      </cc:Work>
    </rdf:RDF>
  </metadata>
  <g
     id="layer1"
     inkscape:label="Layer 1"
     inkscape:groupmode="layer"
     transform="translate(0,456)">
    <rect
       style="opacity:1;fill:url(#linearGradient4194);fill-opacity:1;fill-rule:nonzero;stroke:none;stroke-width:4;stroke-miterlimit:4;stroke-dasharray:none;stroke-opacity:0.58823529"
       id="rect4138"
       width="960"
       height="520"
       x="0"
       y="-456" />
    <path
       d="m 350.51753,-202.69931 c -0.55282,0 -0.99165,0.42744 -1.06289,1.03723 l -1.93769,14.71797 1.93769,14.46435 c 0.0712,0.60981 0.51007,1.0344 1.06289,1.0344 0.53572,0 0.9717,-0.42174 1.05718,-1.0287 l 0,0 0,-0.003 c 0,0 0,0 0,0.003 l 2.29675,-14.47005 -2.29675,-14.72081 c -0.0826,-0.60695 -0.52431,-1.03439 -1.05718,-1.03439 z m 10.89671,-8.04146 c -0.0912,-0.6326 -0.54427,-1.06858 -1.10278,-1.06858 -0.56136,0 -1.02584,0.45023 -1.10278,1.06858 0,0.005 -2.6045,23.79666 -2.6045,23.79666 l 2.6045,23.26949 c 0.0741,0.62405 0.53857,1.07428 1.10278,1.07428 0.55566,0 1.00874,-0.43883 1.09993,-1.06858 l 2.96354,-23.27519 -2.96069,-23.79666 z m 41.04502,-21.95013 c -1.06858,0 -1.95194,0.87481 -2.00324,1.98614 l -2.07447,43.78059 2.07447,28.29326 c 0.0541,1.10563 0.93466,1.9776 2.00324,1.9776 1.06289,0 1.9434,-0.87482 2.00609,-1.98329 l 0,0.009 2.34519,-28.29611 -2.34519,-43.7806 c -0.0627,-1.11133 -0.9432,-1.98614 -2.00609,-1.98614 z m -21.24345,15.21663 c -0.82067,0 -1.49032,0.6554 -1.55586,1.53021 l -2.33663,29.0085 2.33663,28.06529 c 0.0627,0.86912 0.73519,1.52452 1.55586,1.52452 0.81213,0 1.48177,-0.6554 1.55301,-1.52452 l 2.65579,-28.06529 -2.65579,-29.0142 c -0.0712,-0.86911 -0.74088,-1.52451 -1.55301,-1.52451 z m 42.8317,60.81811 c 1.32505,0 2.40218,-1.06859 2.45632,-2.43637 l 2.03458,-27.81738 -2.03173,-58.2877 c -0.0541,-1.3678 -1.13127,-2.43638 -2.45632,-2.43638 -1.33644,0 -2.41642,1.07144 -2.45917,2.43923 0,0.003 -1.80377,58.282 -1.80377,58.282 l 1.80377,27.82878 c 0.0427,1.35639 1.12273,2.42782 2.45632,2.42782 z m 44.19664,0.13108 c 1.82371,0 3.32827,-1.50172 3.36247,-3.34824 l 0,0.02 0,-0.02 1.41909,-27.0195 -1.41909,-67.31795 c -0.0313,-1.84366 -1.53876,-3.34822 -3.36247,-3.34822 -1.82656,0 -3.33398,1.50171 -3.36248,3.35107 l -1.26804,67.2923 c 0,0.0427 1.26804,27.05941 1.26804,27.05941 0.0285,1.82941 1.53876,3.33113 3.36248,3.33113 z m -22.26644,-0.10542 c 1.58719,0 2.86666,-1.27376 2.9094,-2.898 l 0,0.0199 1.72683,-27.39564 -1.72969,-58.70944 c -0.0427,-1.62425 -1.32218,-2.89515 -2.90939,-2.89515 -1.5986,0 -2.87806,1.2709 -2.91225,2.89515 l -1.53591,58.71229 1.53876,27.38994 c 0.0342,1.60715 1.31364,2.8809 2.91225,2.8809 z m -54.18149,-0.25647 c 0.9432,0 1.70688,-0.75512 1.77812,-1.74962 l 2.50191,-28.29896 -2.50191,-26.91977 c -0.0684,-0.9945 -0.83207,-1.74393 -1.77812,-1.74393 -0.95745,0 -1.72113,0.75513 -1.78097,1.75533 l -2.20271,26.90837 2.20271,28.29611 c 0.0627,0.99735 0.82352,1.75247 1.78097,1.75247 z m -21.07533,-1.55017 c 0.68959,0 1.24811,-0.54426 1.3279,-1.29655 l 2.80966,-27.20757 -2.80681,-28.23342 c -0.0826,-0.75513 -0.64116,-1.29939 -1.33075,-1.29939 -0.69814,0 -1.25665,0.54711 -1.32789,1.29939 0,0.003 -2.47342,28.23342 -2.47342,28.23342 l 2.47342,27.20187 c 0.0684,0.75514 0.6269,1.30225 1.32789,1.30225 z m 86.34729,-88.15391 c -1.72398,0 -3.10601,1.37064 -3.14021,3.12597 l -1.40197,56.56657 1.40197,27.21896 c 0.0342,1.73254 1.41337,3.10318 3.14021,3.10318 1.72113,0 3.09462,-1.3678 3.13451,-3.12312 l 0,0.0228 1.57297,-27.21897 -1.57297,-56.57511 c -0.0399,-1.74963 -1.41338,-3.12027 -3.13451,-3.12027 z m -43.85469,89.99188 c 1.19112,0 2.17422,-0.9717 2.23121,-2.21126 l 2.18846,-28.10519 -2.18846,-53.79394 c -0.0598,-1.24241 -1.04009,-2.21126 -2.23121,-2.21126 -1.20251,0 -2.18276,0.9717 -2.23405,2.21126 0,0.003 -1.9377,53.79394 -1.9377,53.79394 l 1.94055,28.11659 c 0.0484,1.22816 1.02869,2.19986 2.2312,2.19986 z m 24.43781,-2.65294 0,-0.0142 1.88071,-27.6407 -1.88071,-60.25104 c -0.0456,-1.49602 -1.22531,-2.67004 -2.68143,-2.67004 -1.46468,0 -2.64439,1.17117 -2.68429,2.67004 l -1.66984,60.24819 1.67269,27.65496 c 0.0399,1.48176 1.21961,2.65293 2.68144,2.65293 1.45897,0 2.63299,-1.17117 2.68143,-2.66149 l 0,0.0114 z m 142.24422,-62.38536 c -4.46527,0 -8.72535,0.9033 -12.60645,2.5304 -2.59311,-29.37323 -27.22466,-52.41475 -57.27041,-52.41475 -7.35186,0 -14.51849,1.44757 -20.84735,3.89533 -2.45918,0.95176 -3.11458,1.932 -3.13737,3.83267 l 0,103.43893 c 0.0256,1.9947 1.57295,3.65598 3.5192,3.8526 0.0826,0.009 89.75822,0.0541 90.33952,0.0541 17.99781,0 32.59039,-14.59258 32.59039,-32.59324 0,-18.00065 -14.58973,-32.59609 -32.58754,-32.59609 z m -100.52385,-42.24754 c -1.95764,0 -3.5648,1.60715 -3.59328,3.58189 l -1.47039,73.41885 1.47324,26.64622 c 0.0256,1.94624 1.63279,3.55054 3.59043,3.55054 1.95195,0 3.55911,-1.6043 3.5876,-3.57904 l 0,0.0313 1.59859,-26.64906 -1.59859,-73.42455 c -0.0285,-1.96904 -1.63565,-3.57619 -3.5876,-3.57619 z m -105.53621,128.156 c -3.85545,-0.90617 -4.89839,-1.39059 -4.89839,-2.91795 0,-1.07713 0.86911,-2.19131 3.47361,-2.19131 2.2255,0 3.96373,0.90331 5.52529,2.50191 l 3.50781,-3.40237 c -2.2939,-2.39648 -5.07221,-3.82125 -8.85643,-3.82125 -4.79865,0 -8.6883,2.70993 -8.6883,7.12389 0,4.79295 3.12882,6.21773 7.60832,7.25782 4.58494,1.04009 5.41986,1.73823 5.41986,3.30264 0,1.84081 -1.35924,2.64154 -4.23729,2.64154 -2.32809,0 -4.51655,-0.79788 -6.22059,-2.78402 l -3.5078,3.12882 c 1.84081,2.70993 5.38851,4.41111 9.44913,4.41111 6.63947,0 9.55742,-3.12597 9.55742,-7.74509 0,-5.28309 -4.27434,-6.60243 -8.13264,-7.50574 z m 22.38042,-9.83097 c -6.63377,0 -10.55761,5.14059 -10.55761,12.54089 0,7.40031 3.92384,12.53806 10.55761,12.53806 6.63377,0 10.56331,-5.13775 10.56331,-12.53806 0,-7.4003 -3.92954,-12.54089 -10.56331,-12.54089 z m 0,20.25465 c -3.92384,0 -5.55948,-3.37103 -5.55948,-7.71091 0,-4.34271 1.63564,-7.71374 5.55948,-7.71374 3.92954,0 5.55949,3.37103 5.55949,7.71374 0,4.33988 -1.62995,7.71091 -5.55949,7.71091 z m 30.19392,-6.21774 c 0,3.88965 -1.91491,6.28898 -5.00383,6.28898 -3.09177,0 -4.96678,-2.46772 -4.96678,-6.35736 l 0,-13.58954 -4.86704,0 0,13.65792 c 0,7.08401 3.96373,11.04489 9.83382,11.04489 6.18354,0 9.86802,-4.06632 9.86802,-11.11327 l 0,-13.58954 -4.86419,0 0,13.65792 z m 25.84549,-3.37102 c 0,1.35639 0.0684,4.41111 0.0684,5.31443 -0.31344,-0.62691 -1.11133,-1.84083 -1.70117,-2.74698 l -8.61992,-12.85721 -4.65333,0 0,24.32383 4.79581,0 0,-10.70293 c 0,-1.3564 -0.0684,-4.41113 -0.0684,-5.31444 0.3106,0.62406 1.11417,1.84082 1.70118,2.74698 l 8.93052,13.27039 4.34272,0 0,-24.32383 -4.7958,0 0,10.28976 z m 18.65604,-10.2869 -7.60831,0 0,24.32382 7.25781,0 c 6.25478,0 12.44117,-3.61609 12.44117,-12.16192 0,-8.89631 -5.14344,-12.1619 -12.09067,-12.1619 z m -0.3505,19.59925 -2.39362,0 0,-14.87184 2.57031,0 c 5.14344,0 7.26351,2.46486 7.26351,7.43449 0,4.44816 -2.33094,7.43735 -7.4402,7.43735 z m 27.48399,-15.15109 c 2.18847,0 3.57905,0.97455 4.44816,2.64153 l 4.51654,-2.08302 c -1.53021,-3.16016 -4.31137,-5.38566 -8.89631,-5.38566 -6.35167,0 -10.80268,5.14059 -10.80268,12.54089 0,7.67671 4.27149,12.53806 10.62886,12.53806 4.41396,0 7.3319,-2.04884 8.9989,-5.48825 l -4.09767,-2.43352 c -1.28515,2.15712 -2.57314,3.09462 -4.7616,3.09462 -3.64744,0 -5.76751,-3.33683 -5.76751,-7.71091 -0.003,-4.51369 2.08872,-7.71374 5.73331,-7.71374 z m 18.04055,-4.44816 -4.86419,0 0,24.32382 14.61822,0 0,-4.79865 -9.75403,0 0,-19.52517 z m 22.56849,-0.37899 c -6.63946,0 -10.5633,5.14059 -10.5633,12.54089 0,7.40031 3.92384,12.53806 10.5633,12.53806 6.63378,0 10.56047,-5.13775 10.56047,-12.53806 0,-7.4003 -3.92669,-12.54089 -10.56047,-12.54089 z m 0,20.25465 c -3.92953,0 -5.55948,-3.37103 -5.55948,-7.71091 0,-4.34271 1.62995,-7.71374 5.55948,-7.71374 3.92099,0 5.55379,3.37103 5.55379,7.71374 0,4.33988 -1.6328,7.71091 -5.55379,7.71091 z m 30.18822,-6.21774 c 0,3.88965 -1.90635,6.28898 -4.99812,6.28898 -3.09748,0 -4.96964,-2.46772 -4.96964,-6.35736 l 0,-13.58954 -4.86419,0 0,13.65792 c 0,7.08401 3.96088,11.04489 9.83383,11.04489 6.18354,0 9.86516,-4.06632 9.86516,-11.11327 l 0,-13.58954 -4.86704,0 0,13.65792 z m 18.55346,-13.65792 -7.60547,0 0,24.32382 7.25783,0 c 6.25763,0 12.43832,-3.61609 12.43832,-12.16192 0,-8.89631 -5.14061,-12.1619 -12.09067,-12.1619 z m -0.34764,19.59925 -2.39647,0 0,-14.87184 2.57314,0 c 5.13776,0 7.25782,2.46486 7.25782,7.43449 0,4.44816 -2.32808,7.43735 -7.43449,7.43735 z"
       id="path4200"
       inkscape:connector-curvature="0"
       style="fill:#ffffff;fill-opacity:1" />
  </g>
</svg>
