<?xml version="1.0" encoding="UTF-8" standalone="no"?>
<svg
   xmlns:dc="http://purl.org/dc/elements/1.1/"
   xmlns:cc="http://creativecommons.org/ns#"
   xmlns:rdf="http://www.w3.org/1999/02/22-rdf-syntax-ns#"
   xmlns:svg="http://www.w3.org/2000/svg"
   xmlns="http://www.w3.org/2000/svg"
   xmlns:sodipodi="http://sodipodi.sourceforge.net/DTD/sodipodi-0.dtd"
   xmlns:inkscape="http://www.inkscape.org/namespaces/inkscape"
   viewBox="0 0 959.99996 520"
   height="520"
   width="960"
   xml:space="preserve"
   id="svg2"
   version="1.1"
   inkscape:version="0.91 r13725"
   sodipodi:docname="stackoverflow.svg"><sodipodi:namedview
     pagecolor="#ffffff"
     bordercolor="#666666"
     borderopacity="1"
     objecttolerance="10"
     gridtolerance="10"
     guidetolerance="10"
     inkscape:pageopacity="0"
     inkscape:pageshadow="2"
     inkscape:window-width="1317"
     inkscape:window-height="744"
     id="namedview14"
     showgrid="false"
     fit-margin-top="0"
     fit-margin-left="0"
     fit-margin-right="0"
     fit-margin-bottom="0"
     inkscape:zoom="0.8473729"
     inkscape:cx="219.01242"
     inkscape:cy="190.28106"
     inkscape:window-x="49"
     inkscape:window-y="24"
     inkscape:window-maximized="1"
     inkscape:current-layer="g12" /><metadata
     id="metadata8"><rdf:RDF><cc:Work
         rdf:about=""><dc:format>image/svg+xml</dc:format><dc:type
           rdf:resource="http://purl.org/dc/dcmitype/StillImage" /><dc:title /></cc:Work></rdf:RDF></metadata><defs
     id="defs6"><clipPath
       id="clipPath20"
       clipPathUnits="userSpaceOnUse"><path
         id="path18"
         d="M 0,1178.69 0,0 l 6000.85,0 0,1178.69 z"
         inkscape:connector-curvature="0" /></clipPath></defs><g
     transform="matrix(1.3333333,0,0,-1.3333333,0,520)"
     id="g10"><g
       transform="scale(0.1,0.1)"
       id="g12"><rect
         style="opacity:1;fill:#ffffff;fill-opacity:1;fill-rule:nonzero;stroke:none;stroke-width:4;stroke-miterlimit:4;stroke-dasharray:none;stroke-opacity:0.58823529"
         id="rect4142"
         width="7200"
         height="3900"
         x="-0.00022888184"
         y="-3900"
         transform="scale(1,-1)" /><g
         id="g14"
         transform="matrix(1.6945905,0,0,1.6945905,2756.4946,951.30161)"><g
           clip-path="url(#clipPath20)"
           id="g16"><path
             id="path24"
             style="fill:#bcbbbc;fill-opacity:1;fill-rule:nonzero;stroke:none"
             d="m 840.719,105.18 0,315.511 105.164,0 L 945.883,0 0,0 l 0,420.691 105.164,0 0,-315.511 735.555,0"
             inkscape:connector-curvature="0" /><path
             id="path26"
             style="fill:#f48023;fill-opacity:1;fill-rule:nonzero;stroke:none"
             d="m 210.445,210.359 525.821,0 0,105.164 -525.821,0 z m 471.266,968.331 -84.383,-62.76 313.817,-421.914 84.382,62.761 z M 420.879,929.949 824.926,593.445 892.227,674.258 488.18,1010.76 Z M 288.973,696.102 765.637,474.109 810.035,569.441 333.371,791.434 Z M 220.887,449.711 735.469,341.562 757.098,444.48 242.516,552.629 220.887,449.711"
             inkscape:connector-curvature="0" /></g></g><rect
         style="opacity:1;fill:#ffffff;fill-opacity:1;fill-rule:nonzero;stroke:none;stroke-width:4;stroke-miterlimit:4;stroke-dasharray:none;stroke-opacity:0.58823529"
         id="rect4140"
         x="708.07056"
         y="-2867.6868"
         transform="scale(1,-1)" /></g></g></svg>