<?xml version="1.0" encoding="UTF-8" standalone="no"?>
<!-- Created with Inkscape (http://www.inkscape.org/) -->

<svg
   xmlns:dc="http://purl.org/dc/elements/1.1/"
   xmlns:cc="http://creativecommons.org/ns#"
   xmlns:rdf="http://www.w3.org/1999/02/22-rdf-syntax-ns#"
   xmlns:svg="http://www.w3.org/2000/svg"
   xmlns="http://www.w3.org/2000/svg"
   xmlns:sodipodi="http://sodipodi.sourceforge.net/DTD/sodipodi-0.dtd"
   xmlns:inkscape="http://www.inkscape.org/namespaces/inkscape"
   id="svg2"
   version="1.1"
   inkscape:version="0.91 r13725"
   xml:space="preserve"
   width="960"
   height="520"
   viewBox="0 0 959.99996 520"
   sodipodi:docname="youtube.svg"><metadata
     id="metadata8"><rdf:RDF><cc:Work
         rdf:about=""><dc:format>image/svg+xml</dc:format><dc:type
           rdf:resource="http://purl.org/dc/dcmitype/StillImage" /><dc:title></dc:title></cc:Work></rdf:RDF></metadata><defs
     id="defs6"><clipPath
       clipPathUnits="userSpaceOnUse"
       id="clipPath40"><path
         d="m 7278.93,3212.09 2907.93,0 0,1617.59 -2907.93,0 0,-1617.59 z"
         id="path42"
         inkscape:connector-curvature="0" /></clipPath><clipPath
       clipPathUnits="userSpaceOnUse"
       id="clipPath52"><path
         d="m 11749.8,1395.82 2919.2,0 0,1623.85 -2919.2,0 0,-1623.85 z"
         id="path54"
         inkscape:connector-curvature="0" /></clipPath></defs><sodipodi:namedview
     pagecolor="#ffffff"
     bordercolor="#666666"
     borderopacity="1"
     objecttolerance="10"
     gridtolerance="10"
     guidetolerance="10"
     inkscape:pageopacity="0"
     inkscape:pageshadow="2"
     inkscape:window-width="1317"
     inkscape:window-height="744"
     id="namedview4"
     showgrid="false"
     fit-margin-top="0"
     fit-margin-left="0"
     fit-margin-right="0"
     fit-margin-bottom="0"
     inkscape:zoom="1.0176877"
     inkscape:cx="561.6856"
     inkscape:cy="296.35775"
     inkscape:window-x="49"
     inkscape:window-y="24"
     inkscape:window-maximized="1"
     inkscape:current-layer="g12" /><g
     id="g10"
     inkscape:groupmode="layer"
     inkscape:label="ink_ext_XXXXXX"
     transform="matrix(1.25,0,0,-1.25,-7194.4564,1685.1484)"><g
       id="g12"
       transform="scale(0.667076,0.667076)"><path
         d="m 8628.05,1397.3201 1151.2931,0 0,623.6171 -1151.2931,0 0,-623.6171 z"
         style="fill:#e72527;fill-opacity:1;fill-rule:nonzero;stroke:none"
         id="path24"
         inkscape:connector-curvature="0" /><g
         id="g4364"
         transform="translate(413.02947,144.69317)"><path
           inkscape:connector-curvature="0"
           id="path222"
           style="fill:#ffffff;fill-opacity:1;fill-rule:nonzero;stroke:none"
           d="m 8869.1677,1576.5081 c -1.7745,0 -3.5649,-0.8441 -5.3713,-2.6201 l 0,-36.2081 c 1.8064,-1.7969 3.5968,-2.6473 5.3713,-2.6473 3.1013,0 4.6839,2.6473 4.6839,8.0169 l 0,25.3489 c 0,5.3633 -1.5826,8.1097 -4.6839,8.1097" /><path
           inkscape:connector-curvature="0"
           id="path224"
           style="fill:#ffffff;fill-opacity:1;fill-rule:nonzero;stroke:none"
           d="m 8908.5091,1576.5081 c -3.5969,0 -5.3873,-2.7464 -5.3873,-8.2423 l 0,-5.4976 10.7585,0 0,5.4976 c 0,5.4959 -1.8064,8.2423 -5.3712,8.2423" /><path
           inkscape:connector-curvature="0"
           id="path226"
           style="fill:#ffffff;fill-opacity:1;fill-rule:nonzero;stroke:none"
           d="m 8924.6389,1553.8065 -21.5171,0 0,-10.53 c 0,-5.4975 1.7904,-8.2439 5.4832,-8.2439 2.6536,0 4.2043,1.4403 4.8117,4.3178 0.096,0.5867 0.2398,2.9766 0.2398,7.2928 l 10.9824,0 0,-1.573 c 0,-3.4674 -0.1279,-5.8557 -0.2238,-6.9315 -0.3677,-2.3867 -1.215,-4.5464 -2.5258,-6.452 -2.9734,-4.3114 -7.3855,-6.4391 -13.0126,-6.4391 -5.627,0 -9.9112,2.027 -13.0285,6.0875 -2.286,2.9717 -3.453,7.6556 -3.453,13.9685 l 0,20.8025 c 0,6.3512 1.0391,10.9951 3.3251,14.0004 3.1173,4.0653 7.4015,6.0875 12.8847,6.0875 5.4032,0 9.6874,-2.0222 12.7088,-6.0875 2.254,-3.0053 3.3251,-7.6492 3.3251,-14.0004 l 0,-12.2996 z m -40.0288,-9.9129 c 0,-5.4944 -0.3677,-9.4509 -1.0871,-11.9687 -1.4387,-4.4169 -4.3162,-6.6773 -8.6004,-6.6773 -3.8206,0 -7.5294,2.1277 -11.1262,6.5766 l 0,-5.7597 -10.7585,0 0,79.7298 10.7585,0 0,-26.0395 c 3.4849,4.2779 7.1617,6.4392 11.1262,6.4392 4.2842,0 7.1617,-2.2556 8.6004,-6.7029 0.7194,-2.3899 1.0871,-6.3177 1.0871,-11.9431 l 0,-23.6544 z m -40.892,-17.8291 -10.7745,0 0,6.4823 c -4.2683,-4.9077 -8.3287,-7.2992 -12.2932,-7.2992 -3.469,0 -5.8509,1.41 -6.9379,4.4169 -0.5915,1.8 -0.9432,4.6423 -0.9432,8.8354 l 0,46.9715 10.7585,0 0,-43.7359 c 0,-2.521 0,-3.835 0.096,-4.1851 0.2717,-1.6674 1.087,-2.5178 2.5257,-2.5178 2.1581,0 4.4122,1.6625 6.7941,5.034 l 0,45.4048 10.7745,0 0,-59.4069 z m -42.4427,0 -11.9734,0 0,68.5045 -12.6593,0 0,11.2253 37.5334,0 0,-11.2253 -12.9007,0 0,-68.5045 z m 136.6158,73.7031 c 0,0 -1.7265,12.1781 -7.0498,17.5414 -6.7461,7.0386 -14.3234,7.0706 -17.7923,7.483 -24.8422,1.7888 -62.1054,1.7888 -62.1054,1.7888 l -0.064,0 c 0,0 -37.2632,0 -62.1054,-1.7888 -3.4689,-0.4124 -11.0367,-0.4444 -17.7907,-7.483 -5.3217,-5.3633 -7.0546,-17.5414 -7.0546,-17.5414 0,0 -1.7729,-14.2994 -1.7729,-28.6004 l 0,-13.4074 c 0,-14.2994 1.7729,-28.5988 1.7729,-28.5988 0,0 1.7329,-12.1781 7.0546,-17.5382 6.754,-7.0418 15.6166,-6.818 19.5812,-7.555 14.1955,-1.3588 60.3468,-1.7776 60.3468,-1.7776 0,0 37.2952,0.058 62.1374,1.8432 3.4689,0.414 11.0462,0.4476 17.7923,7.4894 5.3233,5.3601 7.0498,17.5382 7.0498,17.5382 0,0 1.7744,14.2994 1.7744,28.5988 l 0,13.4074 c 0,14.301 -1.7744,28.6004 -1.7744,28.6004" /><path
           inkscape:connector-curvature="0"
           id="path228"
           style="fill:#ffffff;fill-opacity:1;fill-rule:nonzero;stroke:none"
           d="m 8741.9612,1525.9094 0,6.5495 c -4.3274,-4.9653 -8.4597,-7.3743 -12.4274,-7.3743 -3.501,0 -5.9164,1.4211 -7.0019,4.46 -0.5995,1.8208 -0.9671,4.6903 -0.9671,8.9266 l 0,47.4718 10.8448,0 0,-44.2011 c 0,-2.5498 0,-3.875 0.1311,-4.2283 0.2398,-1.6833 1.0934,-2.5465 2.5546,-2.5465 2.1741,0 4.4584,1.6849 6.8659,5.0931 l 0,45.8828 10.8784,0 0,-60.0336 -10.8784,0 z m -39.6339,42.6441 c 0,5.5551 -1.6801,8.3223 -5.1858,8.3223 -3.5089,0 -5.1907,-2.7672 -5.1907,-8.3223 l 0,-25.2562 c 0,-5.5519 1.6818,-8.3302 5.1907,-8.3302 3.5057,0 5.1858,2.7783 5.1858,8.3302 l 0,25.2562 z m 7.5054,-37.324 c -3.007,-4.0924 -7.2416,-6.1449 -12.6912,-6.1449 -5.4193,0 -9.6587,2.0525 -12.6625,6.1449 -2.3132,3.0054 -3.405,7.7356 -3.405,14.1172 l 0,21.0231 c 0,6.4152 1.0918,11.1086 3.405,14.1412 3.0038,4.1084 7.2432,6.1546 12.6625,6.1546 5.4496,0 9.6842,-2.0462 12.6912,-6.1546 2.2796,-3.0326 3.3762,-7.726 3.3762,-14.1412 l 0,-21.0231 c 0,-6.3816 -1.0966,-11.1118 -3.3762,-14.1172 z m -40.9927,27.3088 0,-32.6289 -12.0646,0 0,32.6289 c -1.0919,5.7757 -3.5073,14.2467 -7.3743,25.4848 -2.5434,7.4734 -5.1891,14.974 -7.7324,22.4474 l 12.6944,0 8.5621,-31.6361 8.2263,31.6361 12.1973,0 -14.5088,-47.9322" /></g></g></g></svg>